<svg fill="#000000" xmlns="http://www.w3.org/2000/svg"  viewBox="0 0 32 32" width="32px" height="32px"><path d="M 14.5 5 C 8.151 5 3 10.151 3 16.5 C 3 22.849 8.151 28 14.5 28 C 19.227 28 23.282781 25.149313 25.050781 21.070312 L 25.056641 21.064453 C 25.849641 19.527453 28.781312 13.310625 29.695312 10.640625 C 29.792313 10.349625 29.931641 9.8773281 29.931641 9.2363281 C 29.931641 6.8933281 28.037312 5 25.695312 5 L 14.5 5 z M 14.5 7 C 19.747 7 24 11.253 24 16.5 C 24 21.747 19.747 26 14.5 26 C 12.351841 26 10.376458 25.278258 8.7851562 24.076172 C 8.924375 24.115592 9.0703396 24.133611 9.2226562 24.101562 C 9.7186563 23.996562 9.6566562 23.645969 9.5976562 23.292969 C 9.5346563 22.915969 9.7949688 22.896062 10.042969 22.914062 C 10.517969 22.948062 10.793891 22.744734 10.962891 22.302734 C 11.463891 20.988734 11.982906 19.680047 12.503906 18.373047 C 12.707906 17.859047 12.911437 17.800219 13.273438 18.199219 C 13.895438 18.885219 14.478172 19.606453 15.076172 20.314453 C 15.114172 20.359453 15.145203 20.417609 15.158203 20.474609 C 15.401203 21.524609 15.691281 22.568859 15.863281 23.630859 C 15.985281 24.389859 16.490484 24.962906 17.271484 25.003906 C 17.489484 25.015906 17.784109 25.017953 17.912109 24.876953 C 17.995109 24.785953 17.89325 24.441484 17.78125 24.271484 C 17.36825 23.643484 17.280125 22.954609 17.203125 22.224609 C 17.074125 20.999609 17.005406 19.730812 16.066406 18.757812 C 15.802406 18.483812 15.553781 18.191672 15.800781 17.763672 C 15.835781 17.702672 15.810672 17.568812 15.763672 17.507812 C 15.326672 16.939813 14.922875 16.337031 14.421875 15.832031 C 14.094875 15.502031 13.970844 15.263422 14.214844 14.857422 C 14.335844 14.657422 14.466375 14.431984 14.484375 14.208984 C 14.521375 13.747984 14.731594 13.577766 15.183594 13.509766 C 15.824594 13.413766 16.507406 13.357281 16.941406 12.738281 C 17.006406 12.645281 17.226703 12.587141 17.345703 12.619141 C 17.796703 12.740141 18.071234 12.638703 18.115234 12.095703 L 18.533203 12 C 18.533203 12 19.131047 11.705031 19.373047 11.582031 C 19.656047 11.437031 19.928609 11.261344 20.224609 11.152344 C 20.483609 11.057344 20.77 11.037187 21 10.992188 C 20.889 10.752188 20.787125 10.531562 20.703125 10.351562 C 20.147125 10.351562 19.563344 10.506594 19.152344 10.308594 C 18.719344 10.099594 18.367516 10.228031 17.978516 10.207031 C 17.710516 10.192031 17.395547 10.232422 17.185547 10.107422 C 16.611547 9.7644219 16.131094 10.002609 15.621094 10.224609 C 15.496094 10.278609 15.344078 10.269063 15.205078 10.289062 C 15.192078 10.137063 15.160875 9.9839844 15.171875 9.8339844 C 15.189875 9.6009844 15.303812 9.355625 15.257812 9.140625 C 15.110813 8.450625 14.501563 8.1035156 13.851562 8.1035156 C 13.128562 8.1035156 12.701297 8.59375 12.654297 9.34375 C 12.630297 9.71475 12.487375 9.9633281 12.234375 10.236328 C 11.784375 10.722328 11.225281 11.151906 11.113281 11.878906 C 10.981281 12.737906 10.829125 13.595078 10.703125 14.455078 C 10.642125 14.867078 10.602844 15.284219 10.589844 15.699219 C 10.576844 16.142219 10.694656 16.605438 10.597656 17.023438 C 10.363656 18.030438 10.016859 19.011672 9.7558594 20.013672 C 9.6358594 20.473672 9.4435781 20.801406 9.0175781 21.066406 C 8.0535781 21.664406 7.7817812 22.555344 8.1757812 23.527344 C 8.1921307 23.567532 8.2199245 23.596274 8.2402344 23.632812 C 6.2578765 21.891754 5 19.34594 5 16.5 C 5 11.253 9.253 7 14.5 7 z M 15.539062 11.164062 C 15.767687 11.127937 16.035578 11.175906 16.330078 11.316406 C 15.910078 11.511406 15.558312 11.685984 15.195312 11.833984 C 15.127313 11.861984 14.997594 11.806047 14.933594 11.748047 C 14.904594 11.722047 14.944281 11.582578 14.988281 11.517578 C 15.122281 11.320578 15.310438 11.200188 15.539062 11.164062 z"/></svg>